PathFileType	4	(X/Y/Z)	Patient4_TMGait_0pt4_02_right_33.trc.trc
DataRate	CameraRate	NumFrames	NumMarkers	Units	OrigDataRate	OrigDataStartFrame	OrigNumFrames
75.675675675676	75.675675675676	4	33	mm	75.675675675676	89	       141
Frame#	Time	Sacral			L.Shoulder			Chest			R.Shoulder			Neck			R.ASIS			L.ASIS			R.Thigh.Superior			R.Thigh.Lateral			R.Thigh.Inferior			R.Patella			L.Thigh.Superior			L.Thigh.Lateral			L.Thigh.Inferior			L.Patella			L.Shank.Superior			L.Shank.Lateral			L.Shank.Inferior			R.Shank.Superior			R.Shank.Lateral			R.Shank.Inferior			R.Heel			R.Midfoot.Superior			R.Midfoot.Lateral			R.Toe			L.Heel			L.Midfoot.Lateral			L.Midfoot.Superior			L.Toe			L.Elbow			L.Wrist			R.Elbow			R.Wrist			
		X1	Y1	Z1	X2	Y2	Z2	X3	Y3	Z3	X4	Y4	Z4	X5	Y5	Z5	X6	Y6	Z6	X7	Y7	Z7	X8	Y8	Z8	X9	Y9	Z9	X10	Y10	Z10	X11	Y11	Z11	X12	Y12	Z12	X13	Y13	Z13	X14	Y14	Z14	X15	Y15	Z15	X16	Y16	Z16	X17	Y17	Z17	X18	Y18	Z18	X19	Y19	Z19	X20	Y20	Z20	X21	Y21	Z21	X22	Y22	Z22	X23	Y23	Z23	X24	Y24	Z24	X25	Y25	Z25	X26	Y26	Z26	X27	Y27	Z27	X28	Y28	Z28	X29	Y29	Z29	X30	Y30	Z30	X31	Y31	Z31	X32	Y32	Z32	X33	Y33	Z33	

89	44.672857142857	837.299250201227	1004.127152431482	460.792276377250	988.728600347216	1435.296710635960	269.573772301444	1106.370847830021	1370.485117358124	421.818950144813	1035.358573187592	1442.024188987779	601.593218194453	981.727800936551	1496.686814589569	426.193721518346	1071.839676050982	943.061616366451	563.935336909788	1043.623468557085	963.323844660797	291.202110641164	1096.250345498177	733.639006177454	543.739838002896	1009.871469362693	630.164323872931	613.175299029728	1081.960462951205	567.251313443828	536.898081627855	1072.833121335858	465.772804400788	556.848433732975	1109.424712405657	759.670766055775	318.621896599676	1030.784576532023	635.266226607332	261.549826707637	1124.601039099708	565.492492873401	321.270506094956	1131.058044658674	495.540549853355	330.452438326806	1104.904446582692	421.326853378906	322.270420662636	1016.811384197563	306.600323431117	268.857251752678	1069.695716791281	194.720703205928	337.986952417325	1008.314549094348	392.090076074350	566.321373756798	900.620132768686	329.692780239559	632.350153591403	904.926782836701	220.260879666143	579.688197869150	720.706069909740	103.355941731757	559.408454864687	898.719604129003	105.398471618441	591.920836890333	799.012433510406	69.031005179602	630.688168106773	998.859333243773	35.811584333767	616.667668361534	944.627872083641	38.545852329530	377.947839871757	1017.506906586497	35.289548686320	296.447074855547	1100.170071523407	97.077807560003	323.548995692254	1228.988842480547	46.925256688327	293.160989241100	951.053087610926	1084.414272964290	151.022431870615	1026.736375485636	833.487552304878	139.568520962131	1117.980930248534	1109.396932854211	725.852820747221	1366.488168728331	1077.923856428517	683.464868939221	
90	44.686071428571	836.225777006032	1004.428864112435	456.894846971443	990.624696278062	1435.607371087716	266.062567614866	1106.456569026626	1370.596029182960	419.621742169956	1033.705018805877	1442.340803650293	598.609474325896	981.887602463798	1497.064048931484	422.638969424293	1070.343859436970	943.634803300640	561.694780913195	1043.910534394384	963.564985337854	288.810760361828	1100.279267348240	735.808351512310	541.586018974029	1016.932834085991	630.459640235233	610.987813640896	1091.148551729405	568.842194362658	534.980805732279	1083.402531304646	465.883739137079	555.778639133777	1108.065290730168	758.813498532827	316.529422525652	1028.482267477818	635.204730636172	259.528099765610	1121.248157938165	564.757585783400	319.792259238061	1126.970515624544	494.974361517804	329.265098097351	1100.765488352283	420.864060857610	321.117836794746	1012.621775348703	306.176072974041	267.833957118917	1064.808029091712	194.398066412039	337.550127144373	1016.749855921027	392.944467785819	565.234896342168	906.851997854001	334.270203105582	631.067780346525	908.200168047060	224.445482973697	579.355087809253	720.471975563677	114.964386245169	559.082800652323	897.979895268148	108.105545113946	591.725128694746	796.719614236395	76.755700889549	630.343279379270	993.921681968362	35.090567002047	616.803569024573	939.240588006775	38.543288177247	377.871732472737	1012.130416348612	35.199304366729	296.366410710891	1094.880607050691	96.887703864355	323.505711596288	1223.722388125933	46.476902932663	293.174151297383	961.234829258736	1084.724254290943	144.658663796868	1045.896986888530	836.637611887098	133.104653966823	1108.159861554008	1107.293805831042	723.138362373613	1355.075112036612	1060.688328093990	682.444523923071	
91	44.699285714286	835.023649596181	1004.566474497379	453.139657034344	992.596512276751	1435.750311983094	262.672416379854	1106.518886471123	1370.508199197065	417.579821303769	1031.967650467403	1442.454203379928	595.756461583174	982.107595193385	1497.294006765673	419.231460045190	1068.739358527238	944.083807832829	559.637573290996	1044.047865164594	963.674751795119	286.566394120854	1104.487457877376	738.228799566221	539.468689154312	1024.493549249855	630.926567369024	608.898265353023	1100.798120339366	570.781509744259	533.109719973675	1094.520213916374	466.433145039979	554.604804772646	1106.569794955701	757.964097248831	314.710057415683	1026.263311280758	635.163431276175	257.500122556113	1117.946980134140	564.057329160130	318.385434444078	1122.953897133179	494.387619646209	328.040722683991	1096.679199730191	420.373978408015	319.927863176949	1008.463341532422	305.736770271754	266.770807319698	1059.926137747295	194.057017368442	337.082276388570	1025.846085550055	394.124953110944	564.056497074860	913.880534374194	339.226159985709	629.722342208542	912.162196014005	229.143218357497	578.888514166343	721.166049599687	127.565522823374	558.539571535770	897.814831846615	111.499679187289	591.455393732775	795.068540544488	85.455856998519	629.862199894505	989.224928461097	34.331671107772	616.938551777674	933.863692515539	38.544958583274	377.785642966347	1006.765247430302	35.112699733791	296.273549755245	1089.605519007597	96.696738588265	323.443360183899	1218.465470827475	46.018375690011	293.180910832770	971.339591775903	1085.191877858803	138.435375454875	1065.212270211638	840.362906396310	126.917705137824	1097.973196864915	1105.109779891063	720.465201394959	1342.263113029412	1042.882326669257	681.596346866359	
92	44.712500000000	833.748175313089	1004.559527336060	449.548119697704	994.585069626763	1435.733388058312	259.441180158590	1106.544008157771	1370.258372547464	415.703408530502	1030.156858070509	1442.394828393745	593.056679799909	982.374445610319	1497.399754250275	415.991209897064	1067.067330868681	944.426438698378	557.758205331251	1044.054788913367	963.684491468794	284.471305353475	1108.734371108837	740.906129222664	537.370627554089	1032.349989083037	631.637865254620	606.914682976157	1110.664296896414	573.114515853966	531.296778353467	1105.962710422426	467.476940221986	553.346730366180	1105.000787095915	757.145169520794	313.043068724968	1024.078028063966	635.127502202635	255.480327985029	1114.712215319374	563.385177583085	316.979905289701	1119.037062575099	493.789652614845	326.758626955538	1092.671564362129	419.864062320570	318.700069509283	1004.348434715092	305.296943727432	265.672088298877	1055.062365321733	193.707221015652	336.583906563734	1035.409659302967	395.679919163966	562.794573441083	921.538867961890	344.515637312399	628.305452028744	916.741403845476	234.304143153406	578.266537789388	722.813465078303	140.857432174517	557.756075709798	898.286952596821	115.584152592998	591.087415981158	794.166160901978	94.937345831575	629.206426672089	984.954808439521	33.607960125431	616.996133543457	928.508925820503	38.554001741050	377.687474047005	1001.421914240416	35.033767774193	296.166709731401	1084.351233504405	96.515578974917	323.356222095443	1213.224842130691	45.570138402357	293.173589776857	981.340987207550	1085.807271184521	132.394009112479	1084.580672129009	844.666566537667	121.024378850617	1087.485945594254	1102.887570042422	717.814309433095	1327.997314612769	1024.626586291449	680.900191599804	
